<svg width="512" height="512" viewBox="0 0 512 512" fill="none" xmlns="http://www.w3.org/2000/svg">
<path d="M491.874 156.349C472.423 110.388 439.991 71.335 399.143 43.73C358.303 16.125 308.967 -0.00799703 256.004 2.97386e-06C220.698 2.97386e-06 186.98 7.161 156.342 20.118C110.396 39.569 71.335 72.01 43.738 112.849C16.133 153.69 -0.00799331 203.032 6.68827e-06 255.996C-0.00799331 291.302 7.16101 325.013 20.118 355.651C39.569 401.604 72.009 440.665 112.857 468.262C153.69 495.867 203.032 512 256.004 512C291.302 512 325.021 504.831 355.651 491.874C401.603 472.422 440.657 439.991 468.262 399.143C495.867 358.302 512 308.968 512 255.996C512 220.697 504.831 186.979 491.874 156.349ZM298.654 344.575C288.714 358.644 296.59 379.889 284.966 392.084C273.264 404.327 267.516 400.484 260.076 417.8C259.148 419.975 246.436 448.549 242.808 439.482C246.103 447.659 243.062 455.368 233.503 455.36C224.015 455.344 235.226 463.275 226.016 465.53C223.284 466.26 222.983 471.826 224.15 478.986C217.171 478.002 210.28 476.7 203.516 475.089C194.258 445.975 189.13 411.566 189.066 402.491C188.916 371.059 182.532 383.46 167.122 360.333C156.666 344.598 147.632 327.639 148.076 308.45C147.965 311.904 168.25 259.846 153.586 269.762C135.77 281.822 132.555 253.042 115.414 250.58C106.664 249.326 109.213 239.743 99.344 241.307C90.468 242.712 80.242 233.55 73.462 228.644C69.08 225.452 60.854 179.642 54.13 179.754C44.619 179.809 61.482 211.71 58.012 212.48C53.828 213.321 47.373 196.958 42.904 182.866C44.58 177.944 46.429 173.085 48.446 168.329C65.531 127.918 94.113 93.509 130.078 69.215C142.305 60.95 155.404 53.9 169.172 48.137C169.839 48.104 170.513 48.065 171.18 47.969C183.621 46.501 220.087 32.21 230.281 43.349C234.568 47.906 175.15 69.469 173.419 78.719C172.284 84.753 188.067 83.697 189.449 83.792C205.312 84.753 184.821 100.631 194.498 103.362C209.067 107.268 223.564 41.284 234.735 74.86C239.301 88.492 258.799 64.555 260.181 81.338C261.602 98.845 277.6 103.243 247.748 107.998C220.318 112.412 242.31 123.568 224.351 132.959C207.36 141.851 192.514 146.019 180.518 161.961C167.084 179.841 165.941 179.277 160.638 201.174C157.772 213.043 143.449 193.084 149.023 185.51C147.077 188.13 130.175 179.849 128.475 184.12C125.173 192.401 116.272 187.923 109.255 192.901C100.371 199.173 91.764 219.41 100.68 228.929C107.778 236.567 132.024 212.559 133.35 220.744C134.366 227.048 124.736 231.478 125.792 237.742C127.293 246.793 142.124 235.146 142.124 242.172C142.116 246.698 136.122 271.524 149.198 266.808C156.256 264.267 158.194 269.674 162.647 268.547C168.737 267.007 172.317 252.747 179.614 253.803C188.252 255.049 201.423 259.011 210.116 261.512C224.312 265.602 223.565 277.582 240.063 280.082C256.918 282.639 250.265 297.756 248.193 306.202C246.414 313.516 326.76 304.934 298.654 344.575ZM392.307 125.934C392.314 125.934 407.249 126.101 410.416 125.609C413.584 125.116 413.481 117.661 413.45 116.073C413.426 114.462 404.875 110.635 406.979 109.603C409.09 108.571 414.37 107.054 415.934 106.014C416.665 105.53 418.498 103.934 420.475 102.164C427.001 109.126 433.091 116.51 438.704 124.266C437.672 124.917 436.608 125.696 435.838 126.474C433.766 128.578 427.382 125.831 427.382 125.831C424.603 128.8 421.832 131.793 419.038 134.787C417.664 137.971 416.298 141.17 414.917 144.361C414.917 144.361 405.398 149.085 401.135 149.585C396.871 150.077 389.877 146.25 388.773 144.631C387.71 143.011 392.314 125.917 392.307 125.934ZM463.547 343.662C462.205 346.838 460.768 349.966 459.283 353.063C457.791 348.363 456.314 344.187 455.013 341.924C451.908 336.58 447.756 330.158 453.115 317.201C458.481 304.244 450.113 288.087 445.898 283.761C441.682 279.45 441.698 276.203 445.922 269.709C450.145 263.222 444.874 261.055 440.642 261.055C436.402 261.055 433.218 253.473 427.907 254.553C422.603 255.625 402.318 261.047 394.784 259.959C387.304 258.887 363.542 236.007 363.494 230.544C363.494 225.09 364.495 204.432 366.638 201.192C368.798 197.945 380.556 183.146 384.795 176.699C389.035 170.245 395.387 161.678 400.721 160.645C406.08 159.613 430.486 155.564 437.822 153.516C445.174 151.459 444.174 155.413 446.341 159.724C447.754 159.915 449.152 160.113 450.557 160.304C450.565 160.304 456.369 161.448 460.061 164.17C460.815 164.726 461.625 165.258 462.451 165.79C474.534 193.403 481.235 223.882 481.243 255.997C481.235 287.142 474.932 316.724 463.547 343.662Z" fill="white"/>
</svg>